<svg width="375" height="263" viewBox="0 0 375 263" fill="none" xmlns="http://www.w3.org/2000/svg">
<path d="M315.234 114.508C332.227 118.023 346.289 126.812 358.008 140.289C369.141 154.352 375 170.172 375 187.75C375 201.812 371.484 214.117 365.039 225.836C358.008 237.555 349.219 246.344 337.5 252.789C325.781 259.82 313.477 262.75 300 262.75H84.375C69.1406 262.75 55.0781 259.234 42.1875 251.617C29.2969 244 18.75 233.453 11.1328 220.562C3.51562 207.672 0 193.609 0 178.375C0 160.211 5.27344 143.805 15.8203 129.156C26.3672 115.094 39.8438 104.547 56.25 98.6875V94C56.25 77.5938 60.3516 61.7734 68.5547 47.125C76.7578 33.0625 88.4766 21.3438 103.125 13.1406C117.188 4.9375 133.008 0.25 150 0.25C166.992 0.25 182.812 4.9375 197.461 13.1406C211.523 21.9297 223.242 33.0625 231.445 47.125C240.82 41.2656 250.781 37.75 262.5 37.75C277.734 37.75 291.211 43.6094 302.344 54.1562C312.891 65.2891 318.75 78.7656 318.75 94C318.75 101.031 317.578 108.062 315.234 114.508Z" fill="#BDBDBD"/>
</svg>
